{"asset":{"version":"2.0","generator":"Blockbench 4.12.6 glTF exporter"},"scenes":[{"nodes":[2],"name":"blockbench_export"}],"scene":0,"nodes":[{"name":"cuboid","mesh":0},{"translation":[0,1.9375,-1],"name":"cuboid","mesh":1},{"children":[0,1]}],"bufferViews":[{"buffer":0,"byteOffset":0,"byteLength":7536,"target":34962,"byteStride":12},{"buffer":0,"byteOffset":7536,"byteLength":7536,"target":34962,"byteStride":12},{"buffer":0,"byteOffset":15072,"byteLength":5024,"target":34962,"byteStride":8},{"buffer":0,"byteOffset":20096,"byteLength":1884,"target":34963},{"buffer":0,"byteOffset":21980,"byteLength":1572,"target":34962,"byteStride":12},{"buffer":0,"byteOffset":23552,"byteLength":1572,"target":34962,"byteStride":12},{"buffer":0,"byteOffset":25124,"byteLength":1048,"target":34962,"byteStride":8},{"buffer":0,"byteOffset":26172,"byteLength":392,"target":34963}],"buffers":[{"byteLength":26564,"uri":"data:application/octet-stream;base64,"}],"accessors":[{"bufferView":0,"componentType":5126,"count":628,"max":[1.4375,3.0625,1.5625],"min":[-1.4375,0,-1.875],"type":"VEC3"},{"bufferView":1,"componentType":5126,"count":628,"max":[1,1,1],"min":[-1,-1,-1],"type":"VEC3"},{"bufferView":2,"componentType":5126,"count":628,"max":[0.671875,0.51953125],"min":[0,0],"type":"VEC2"},{"bufferView":3,"componentType":5123,"count":942,"max":[627],"min":[0],"type":"SCALAR"},{"bufferView":4,"componentType":5126,"count":131,"max":[0.5869463682174683,1.125,1],"min":[-0.5869463682174683,0.125,-0.4375],"type":"VEC3"},{"bufferView":5,"componentType":5126,"count":131,"max":[1,1,1],"min":[-1,-1,-1],"type":"VEC3"},{"bufferView":6,"componentType":5126,"count":131,"max":[0.84375,0.8179807662963867],"min":[0,0],"type":"VEC2"},{"bufferView":7,"componentType":5123,"count":195,"max":[130],"min":[0],"type":"SCALAR"}],"materials":[{"pbrMetallicRoughness":{"metallicFactor":0,"roughnessFactor":1,"baseColorTexture":{"index":0}},"alphaMode":"MASK","alphaCutoff":0.05,"doubleSided":true},{"pbrMetallicRoughness":{"metallicFactor":0,"roughnessFactor":1,"baseColorTexture":{"index":1}},"alphaMode":"MASK","alphaCutoff":0.05,"doubleSided":true}],"textures":[{"sampler":0,"source":0,"name":"texture"},{"sampler":1,"source":1,"name":"texture"}],"samplers":[{"magFilter":9728,"minFilter":9728,"wrapS":33071,"wrapT":33071},{"magFilter":9728,"minFilter":9728,"wrapS":33071,"wrapT":33071}],"images":[{"mimeType":"image/png","uri":"data:image/png;base64,"},{"mimeType":"image/png","uri":"data:image/png;base64,"}],"meshes":[{"primitives":[{"mode":4,"attributes":{"POSITION":0,"NORMAL":1,"TEXCOORD_0":2},"indices":3,"material":0}]},{"primitives":[{"mode":4,"attributes":{"POSITION":4,"NORMAL":5,"TEXCOORD_0":6},"indices":7,"material":1}]}]}