{"asset":{"version":"2.0","generator":"Blockbench 4.12.6 glTF exporter"},"scenes":[{"nodes":[1],"name":"blockbench_export"}],"scene":0,"nodes":[{"translation":[0,0.5625,0],"name":"cylinder","mesh":0},{"children":[0]}],"bufferViews":[{"buffer":0,"byteOffset":0,"byteLength":6912,"target":34962,"byteStride":12},{"buffer":0,"byteOffset":6912,"byteLength":6912,"target":34962,"byteStride":12},{"buffer":0,"byteOffset":13824,"byteLength":4608,"target":34962,"byteStride":8},{"buffer":0,"byteOffset":18432,"byteLength":1584,"target":34963}],"buffers":[{"byteLength":20016,"uri":"data:application/octet-stream;base64,"}],"accessors":[{"bufferView":0,"componentType":5126,"count":576,"max":[0.75,0.5625,0.75],"min":[-0.75,-0.5625,-0.75],"type":"VEC3"},{"bufferView":1,"componentType":5126,"count":576,"max":[1,1,1],"min":[-1,-1,-1],"type":"VEC3"},{"bufferView":2,"componentType":5126,"count":576,"max":[0.820914089679718,0.671875],"min":[0,0],"type":"VEC2"},{"bufferView":3,"componentType":5123,"count":792,"max":[575],"min":[0],"type":"SCALAR"}],"materials":[{"pbrMetallicRoughness":{"metallicFactor":0,"roughnessFactor":1,"baseColorTexture":{"index":0}},"alphaMode":"MASK","alphaCutoff":0.05,"doubleSided":true}],"textures":[{"sampler":0,"source":0,"name":"table2.png"}],"samplers":[{"magFilter":9728,"minFilter":9728,"wrapS":33071,"wrapT":33071}],"images":[{"mimeType":"image/png","uri":"data:image/png;base64,"}],"meshes":[{"primitives":[{"mode":4,"attributes":{"POSITION":0,"NORMAL":1,"TEXCOORD_0":2},"indices":3,"material":0}]}]}