{"asset":{"version":"2.0","generator":"Blockbench 4.12.6 glTF exporter"},"scenes":[{"nodes":[2],"name":"blockbench_export"}],"scene":0,"nodes":[{"name":"cuboid","mesh":0},{"translation":[0.875,1.5625,0],"name":"cylinder","mesh":1},{"children":[0,1]}],"bufferViews":[{"buffer":0,"byteOffset":0,"byteLength":744,"target":34962,"byteStride":12},{"buffer":0,"byteOffset":744,"byteLength":744,"target":34962,"byteStride":12},{"buffer":0,"byteOffset":1488,"byteLength":496,"target":34962,"byteStride":8},{"buffer":0,"byteOffset":1984,"byteLength":168,"target":34963},{"buffer":0,"byteOffset":2152,"byteLength":1440,"target":34962,"byteStride":12},{"buffer":0,"byteOffset":3592,"byteLength":1440,"target":34962,"byteStride":12},{"buffer":0,"byteOffset":5032,"byteLength":960,"target":34962,"byteStride":8},{"buffer":0,"byteOffset":5992,"byteLength":288,"target":34963}],"buffers":[{"byteLength":6280,"uri":"data:application/octet-stream;base64,"}],"accessors":[{"bufferView":0,"componentType":5126,"count":62,"max":[1.375,1.625,1.25],"min":[-1.375,0,-1.25],"type":"VEC3"},{"bufferView":1,"componentType":5126,"count":62,"max":[1,1,1],"min":[-1,-1,-1],"type":"VEC3"},{"bufferView":2,"componentType":5126,"count":62,"max":[0.51171875,0.50390625],"min":[0,0],"type":"VEC2"},{"bufferView":3,"componentType":5123,"count":84,"max":[61],"min":[0],"type":"SCALAR"},{"bufferView":4,"componentType":5126,"count":120,"max":[0.1875,0.5,0.1875],"min":[-0.1875,0,-0.1875],"type":"VEC3"},{"bufferView":5,"componentType":5126,"count":120,"max":[1,1,1],"min":[-1,-1,-1],"type":"VEC3"},{"bufferView":6,"componentType":5126,"count":120,"max":[0.5625,0.53125],"min":[0.0027687500696629286,0],"type":"VEC2"},{"bufferView":7,"componentType":5123,"count":144,"max":[119],"min":[0],"type":"SCALAR"}],"materials":[{"pbrMetallicRoughness":{"metallicFactor":0,"roughnessFactor":1,"baseColorTexture":{"index":0}},"alphaMode":"MASK","alphaCutoff":0.05,"doubleSided":true},{"pbrMetallicRoughness":{"metallicFactor":0,"roughnessFactor":1,"baseColorTexture":{"index":1}},"alphaMode":"MASK","alphaCutoff":0.05,"doubleSided":true}],"textures":[{"sampler":0,"source":0,"name":"texture.png"},{"sampler":1,"source":1,"name":"store1.png"}],"samplers":[{"magFilter":9728,"minFilter":9728,"wrapS":33071,"wrapT":33071},{"magFilter":9728,"minFilter":9728,"wrapS":33071,"wrapT":33071}],"images":[{"mimeType":"image/png","uri":"data:image/png;base64,"},{"mimeType":"image/png","uri":"data:image/png;base64,"}],"meshes":[{"primitives":[{"mode":4,"attributes":{"POSITION":0,"NORMAL":1,"TEXCOORD_0":2},"indices":3,"material":0}]},{"primitives":[{"mode":4,"attributes":{"POSITION":4,"NORMAL":5,"TEXCOORD_0":6},"indices":7,"material":1}]}]}